<?xml version="1.0" encoding="UTF-8"?>
<svg id="Layer_2" data-name="Layer 2" xmlns="http://www.w3.org/2000/svg" viewBox="0 0 513.58 178">
  <defs>
    <style>
      .cls-1 {
        fill: #fff;
      }
    </style>
  </defs>
  <g id="Layer_1-2" data-name="Layer 1">
    <g>
      <path class="cls-1" d="M426.01,93.96c-.85-.14-1.22.57-1.71,1.09-5.18,5.51-7.98,13.19-14.67,18.53-15.97,12.75-23.31-4.69-25.09-18.46l-.6-.71c-.48-.03-.81.28-1.2.48-2.53,1.29-14.6,17.34-15.88,20.33-2.47,5.77-1.62,20.25-6.1,23.86-2.92,2.35-4.25.5-4.18-2.64.22-10,10.31-37.23-.29-43.69-3.2-1.95-5.67-.06-8.47,1.73-8.91,5.71-22.11,25.88-30.05,6.17-.71-10.98-.12-22,.43-32.97-1.08-1.12-6.41,6.01-7.08,6.93-5.94,8.19-8.91,18.83-13.96,26.13-1.63,2.36-2.88,2.61-4.18-.29-3.52-7.81.81-23.25-.21-31.69-.05-.45.26-1.44-.64-1.07-3.84,1.6-16.36,25.13-18.34,29.94-1.24,3.02-4.07,14.18-6.21,15.33-3.21,1.73-4.29-1.34-4.79-3.88-.46-2.3-.85-15.88-1.49-16.4-.69-.09-1.18.29-1.68.69-2.14,1.72-5.1,6.55-7.8,9.01-4.61,4.21-11.94,10.07-17.24,3.43-6.39-8.02-3.37-23.72-3.46-33.39-1.05-.21-1.09.12-1.66.7-2.89,2.9-7.59,14.2-10.92,18.83-2.13,2.97-8.3,10.75-12.22,10.67-4.52-.09-5.67-8.05-7.07-10.63-.2-.38.32-.71-.69-.62-1.12.1-5.04,5.85-6.23,7.13-2.4,2.58-9.06,9.55-12.33,10.09-5.16.85-9.37-.11-11.61-5.15-2.49-5.62-.84-25.8-.63-32.95.02-.54.37-3.68-.66-3.25-1.87.78-9.13,11.82-10.48,14.09-4.05,6.83-6.8,14.31-10.87,21.05-.45.27-.92.29-1.42.15-3.42-.98-3-14.88-2.91-17.85.17-5.62,1.84-11.51.67-17.01-7.66,8.15-13.69,18.95-18.1,29.32-1.72,4.05-3.29,11.17-5.31,14.52-.59.98-1.28,1.83-2.45,2.13-3.24-.81-3.33-3.31-3.61-6.15-1.8-18.35,2.61-30.15,4.58-47.03.38-3.29.21-4.35-3.15-5.26-7.79-2.12-10.09.73-14.76,5.86-9.82,10.78-16.06,24.02-26.38,34.86-16.73,17.57-34.19,25.52-58.86,24.33-1.66-.08-13.85-2.03-14.05-2.83l1.14-3.13c23.64,6.28,45.14.72,63.14-15.36,11.17-9.98,17.48-21.65,26.31-33.18,3.73-4.87,11.17-14.53,17.43-14.9,18.47-1.09,11.41,18.48,10.59,29.98-.44,6.06-.41,12.23-.44,18.31,1.04.2,1.09-.12,1.66-.7,2.7-2.73,7.79-14.53,10.49-18.82,2.73-4.35,8.33-12.99,12.87-15.15,1.37-.65,5.24-1.79,6.34-.56,2.25,2.53-3.65,21.66-2.91,26.84.08.54-.22.79.65.64,1.5-.26,8.54-13.04,10.12-15.32,1.96-2.84,12.37-17.23,16.58-11.82,2.17,2.79-2.46,19.98-2.77,24.77-.41,6.45-1.37,20.63,9.06,18.1,3.69-.89,13.61-11.77,15.86-15.18,9.35-14.19,4.95-29.71,28.75-28.58,1.64.08,2.69,1.2,4.64.78,2.46-.53,3.34-4.93,6.96-2.55l.29.68c-.44,8.98-2.92,17.64-3.07,26.72-.17,10.1,1.59,25.6,14.88,14.88,16.71-13.48,12.41-21.89,18.13-39.2.56-1.7.85-3.23,2.57-4.18l.98.41c.26.7.52,1.5.53,2.26.09,6.14-1.74,14.64-2.14,21.13-.31,4.94-.54,9.91-.44,14.86.92.09,1.53-.51,2.09-1.14,4.63-5.29,8.92-17.43,14.12-24.25,2.78-3.65,9.4-11.88,14.52-10.38.52.4,1.04,1.35,1.15,1.97,1.24,7.5-4.19,17.46-3.35,25.33l1.01.74c1.11-.02,6.02-9.39,7.09-11.02,2.74-4.17,9.26-14.1,13.66-16.08,6.16-2.77,6.43-.01,6.2,5.34-.39,9.02-6.37,24.64-2.55,33.12,5.83,12.96,19-5.29,25.16-9.23,6.39-4.08,12.6-4.08,15.87,3.55.82,1.91,1.85,9.94,3.46,9.76,1.76-.19,11.42-11.67,12.98-13.77,7.55-10.13,6.42-22.67,9.44-34.96,2.85-11.63,14.32-44.13,24.31-50.26,1.12-.69,2.43-1.41,3.79-1.39,1.77.18-1.83,1.48-2.15,1.73-11.01,8.75-21.51,47.2-24.86,61.35-.29,1.24-1.34,6.74-.39,7.44.46.29.95.25,1.45.11,1.11-.3,7.25-11.75,8.3-13.7,6.76-12.6,15.85-29.67,20.36-43.01,1.51-4.46,3.2-8.84.11-13.04,5.04,2.61,1.55,12.74.11,17.14-6.6,20.25-20.58,40.84-30.27,59.82.43,8.59-1.68,20.33,3.87,27.55,9.16,11.92,21.93-6.47,26.73-13.77,9.42-14.33,9.69-25.2,14.01-41.17,3.34-12.37,7.62-26.04,12.64-37.8,1.56-3.66,8.37-19.34,12.81-19.09,2.79.75,3.14,4.14,3.21,6.67.79,27.53-31.89,53.08-29.51,76.73.04.36.14.7.21,1.06.59.11,1.16,0,1.72-.19,3.04-1,13.1-11.53,15.73-14.45,2.62-2.91,8-10.99,10.54-12.74.59-.41.87-.82,1.74-.62.05.48,0,.93-.1,1.4-1.32,6.01-16.7,20.07-21.92,24.21-1.3,1.03-8.11,5.19-8.5,5.94-.43.82.04,1.47.55,2.09,1.48,1.82,12.8,9.24,15.13,9.87,10.44,2.83,16.31-2.09,22.83-9.02,12.19-12.96,23.18-27.79,35.55-40.75.81-.85,5.36-5.6,5.84-5.8.76-.32.78.47.57,1.01-11.37,13.17-23.3,25.84-35.08,38.64-10.04,10.91-17.44,24.16-34.79,15.83-2.15-1.03-9.88-7.34-11.5-6.29-.45,1.44-.8,2.95-.93,4.46-.96,11.28.49,24.27.33,35.7.31,1.57-3.03,1.46-3.69,1.09-.27-.15-1.8-5.24-1.8-5.74v-35.13ZM440.24,53.87c2.35-.75,3.64-3.37,4.82-5.31,5.4-8.86,14.87-28.86,15.87-38.87.54-5.45-.03-13.09-5.35-4.92-3.59,5.51-14.17,36.98-15.24,43.82-.27,1.75-.03,3.53-.1,5.28ZM217.65,64.75c-5.38.78-10.62,8.56-12.02,13.42-1.49,5.17-3.23,23.15,6.77,18.4,3.5-1.66,13.77-18.31,14.38-22.25.74-4.79-4.16-10.28-9.13-9.57Z"/>
      <path class="cls-1" d="M359.18,149.56c.82,8.86,10.93,13.35,5.36,22.81-2.08,3.54-7,6.18-11.07,5.53-3.05-.49-6.44-3.31-6.55-6.57-.24-7.11,3.42-8.69,6.85-13.62,1.41-2.03,2.94-5.91,4.2-7.44.38-.46.43-.9,1.22-.72Z"/>
    </g>
  </g>
</svg>